<?xml version="1.0" standalone="no"?>
<!DOCTYPE svg PUBLIC "-//W3C//DTD SVG 20010904//EN"
 "http://www.w3.org/TR/2001/REC-SVG-20010904/DTD/svg10.dtd">
<svg version="1.0" xmlns="http://www.w3.org/2000/svg"
 width="1224.000000pt" height="792.000000pt" viewBox="0 0 1224.000000 792.000000"
 preserveAspectRatio="xMidYMid meet">

<g transform="translate(0.000000,792.000000) scale(0.100000,-0.100000)"
fill="#000000" stroke="none">
<path d="M6060 6155 c-186 -26 -379 -107 -542 -228 l-83 -62 730 -5 c528 -4
737 -8 756 -17 15 -6 36 -24 48 -39 l21 -27 0 -768 0 -769 -612 -2 -612 -3 -8
-32 c-19 -71 -111 -106 -179 -66 -61 36 -59 7 -59 845 0 707 -1 766 -18 797
-9 19 -29 44 -45 55 l-27 20 -41 -40 c-64 -60 -150 -181 -202 -280 -334 -647
13 -1445 717 -1649 138 -39 215 -48 376 -42 138 6 181 14 350 63 36 11 172 82
195 103 11 10 29 23 40 29 15 9 -105 11 -465 12 -267 0 -522 3 -567 7 l-83 6
25 25 c14 14 29 39 33 56 l8 31 614 3 615 2 58 58 c112 110 205 286 254 477
33 133 42 349 19 480 -87 502 -493 893 -996 961 -126 16 -194 16 -320 -1z"/>
<path d="M5889 5770 c-10 -7 -7 -11 14 -19 16 -6 32 -11 37 -11 16 0 29 -35
85 -224 l55 -184 -30 -49 c-51 -82 -53 -81 212 -83 201 -1 233 -3 243 -17 17
-22 29 0 15 27 -10 19 -20 20 -240 20 l-229 0 12 23 c36 67 23 63 249 71 114
3 214 9 222 12 19 7 30 42 52 167 16 88 16 102 3 125 -16 30 -5 28 -329 46
-63 4 -147 9 -186 12 -69 6 -71 7 -83 40 -9 24 -20 36 -39 40 -15 3 -32 7 -38
9 -6 2 -17 -1 -25 -5z"/>
<path d="M6437 5152 c-22 -24 -21 -35 1 -54 39 -35 84 19 46 56 -20 20 -27 20
-47 -2z"/>
<path d="M6010 5145 c-14 -17 -5 -51 15 -59 24 -9 59 27 51 52 -8 26 -47 30
-66 7z"/>
<path d="M5740 4870 l0 -70 70 0 70 0 0 70 0 70 -70 0 -70 0 0 -70z m120 5 l0
-45 -45 0 -45 0 0 45 0 45 45 0 45 0 0 -45z"/>
<path d="M6016 4894 c-26 -25 -4 -50 50 -58 59 -8 727 -8 748 0 19 7 21 45 4
62 -9 9 -111 12 -399 12 -339 0 -390 -2 -403 -16z"/>
<path d="M5740 4670 l0 -70 69 0 68 0 5 44 c3 25 3 56 1 70 -5 25 -8 26 -74
26 l-69 0 0 -70z m120 -5 l0 -45 -45 0 -45 0 0 45 0 45 45 0 45 0 0 -45z"/>
<path d="M6024 4697 c-18 -10 -18 -41 0 -56 9 -8 125 -10 407 -9 l394 3 3 24
c2 13 -1 28 -6 33 -11 11 -777 16 -798 5z"/>
<path d="M5778 4532 l-38 -3 0 -64 c0 -72 3 -75 86 -75 l54 0 0 69 0 69 -32 3
c-18 2 -50 3 -70 1z m80 -69 l3 -43 -45 0 -46 0 0 46 0 45 43 -3 c42 -3 42 -3
45 -45z"/>
<path d="M6015 4484 c-14 -14 -14 -19 -2 -38 14 -21 19 -21 393 -24 209 -1
389 0 402 3 28 7 30 50 3 65 -13 6 -157 10 -400 10 -336 0 -381 -2 -396 -16z"/>
<path d="M8220 3258 c0 -71 -3 -128 -6 -128 -4 0 -21 13 -40 30 -58 51 -162
54 -234 6 -122 -81 -134 -340 -21 -453 83 -82 218 -86 280 -7 l21 27 0 -37 c0
-35 1 -36 39 -36 22 0 43 5 47 11 8 13 7 618 -2 674 -5 39 -7 40 -45 40 l-39
0 0 -127z m-60 -163 c30 -27 49 -76 56 -148 8 -81 -9 -142 -51 -184 -29 -29
-39 -33 -86 -33 -48 0 -55 3 -90 39 -76 80 -80 252 -8 324 28 27 34 29 94 25
45 -3 70 -10 85 -23z"/>
<path d="M4767 3334 c-4 -4 -7 -38 -7 -76 l0 -68 -35 0 c-33 0 -35 -2 -35 -35
0 -33 2 -35 34 -35 l35 0 3 -206 3 -206 28 -24 c23 -20 39 -24 88 -24 l59 0
-6 28 c-10 48 -13 52 -37 52 -44 0 -48 16 -45 196 l3 169 38 5 c21 3 38 8 37
13 0 4 0 21 0 37 0 28 -2 30 -40 30 l-39 0 -3 73 -3 72 -35 3 c-20 2 -39 0
-43 -4z"/>
<path d="M9517 3334 c-4 -4 -7 -38 -7 -76 l0 -68 -35 0 c-33 0 -35 -2 -35 -35
0 -33 2 -35 34 -35 l35 0 3 -206 3 -206 28 -24 c23 -20 39 -24 88 -24 l59 0
-6 28 c-10 48 -13 52 -37 52 -43 0 -47 14 -47 183 0 173 3 183 56 189 16 2 28
6 27 11 -2 4 -3 21 -3 37 0 28 -2 30 -40 30 l-39 0 -3 73 -3 72 -35 3 c-20 2
-39 0 -43 -4z"/>
<path d="M2395 3181 c-94 -43 -152 -155 -143 -275 13 -159 109 -256 252 -256
86 0 158 47 204 134 24 45 27 62 27 146 0 78 -4 102 -22 135 -28 52 -78 100
-125 119 -51 21 -143 20 -193 -3z m175 -76 c88 -45 104 -247 26 -332 -27 -29
-41 -36 -82 -40 -70 -7 -107 14 -140 80 -47 92 -32 234 30 286 38 32 111 34
166 6z"/>
<path d="M3005 3185 c-16 -9 -39 -25 -51 -36 -28 -26 -34 -24 -34 11 0 28 -2
30 -40 30 l-40 0 0 -260 c0 -214 2 -260 14 -260 7 0 27 -3 44 -6 l30 -6 4 183
c3 184 3 184 32 226 32 48 75 66 129 53 79 -17 87 -41 87 -270 0 -146 3 -180
14 -180 7 0 28 -3 45 -6 l32 -7 -3 221 c-3 242 -4 246 -71 296 -37 28 -149 34
-192 11z"/>
<path d="M3520 3185 c-156 -70 -200 -334 -77 -464 48 -50 100 -71 183 -71 60
0 77 4 109 26 47 31 72 59 91 101 21 47 18 53 -26 53 -34 0 -42 -4 -55 -30
-34 -66 -135 -91 -201 -51 -32 19 -74 92 -74 127 0 18 10 19 193 22 105 2 193
5 193 5 1 1 -3 34 -8 72 -12 88 -50 159 -102 194 -32 21 -53 26 -115 29 -52 1
-87 -3 -111 -13z m171 -81 c18 -9 38 -32 50 -57 35 -79 38 -77 -126 -77 -160
0 -158 -1 -131 63 23 55 69 87 127 87 28 0 64 -7 80 -16z"/>
<path d="M4310 3178 c-33 -17 -51 -35 -67 -68 -27 -52 -29 -80 -8 -124 20 -41
68 -67 174 -96 109 -28 130 -39 137 -66 15 -58 -31 -94 -118 -94 -64 0 -115
28 -131 70 -10 26 -17 30 -49 30 -34 0 -38 -3 -38 -26 0 -42 39 -100 84 -125
35 -20 55 -24 132 -24 82 0 94 3 132 28 74 48 102 139 63 203 -22 37 -65 58
-169 85 -103 27 -136 47 -140 85 -5 47 27 69 98 68 65 -1 104 -20 122 -60 9
-19 19 -24 50 -24 33 0 38 3 38 24 0 37 -41 89 -90 114 -32 16 -62 22 -110 22
-48 0 -78 -6 -110 -22z"/>
<path d="M5135 3181 c-95 -43 -140 -124 -140 -251 0 -132 43 -210 140 -256
203 -96 400 113 330 352 -21 73 -88 146 -150 163 -59 16 -135 13 -180 -8z
m176 -77 c67 -34 97 -202 52 -289 -31 -60 -56 -78 -116 -82 -92 -7 -149 54
-164 175 -7 61 18 150 50 180 45 43 115 49 178 16z"/>
<path d="M5735 3186 c-16 -7 -39 -23 -49 -35 -26 -29 -36 -26 -36 9 0 28 -2
30 -40 30 l-40 0 0 -365 0 -365 45 0 45 0 0 127 c0 104 2 124 13 110 35 -47
159 -62 227 -27 104 53 162 236 120 378 -17 55 -64 110 -114 133 -48 22 -128
24 -171 5z m154 -93 c33 -25 49 -74 50 -153 1 -87 -14 -137 -54 -177 -29 -29
-40 -33 -83 -33 -93 0 -142 67 -142 192 0 56 6 85 24 124 13 28 30 55 37 59
43 27 123 21 168 -12z"/>
<path d="M6580 3189 c-14 -5 -40 -24 -57 -42 l-33 -31 0 37 c0 36 -1 37 -40
37 l-40 0 0 -365 0 -365 45 0 45 0 0 128 c1 87 4 122 10 110 17 -28 93 -51
155 -46 77 6 131 45 170 123 28 55 30 68 30 165 0 93 -3 110 -25 150 -38 67
-96 103 -173 107 -34 2 -73 -2 -87 -8z m139 -88 c81 -44 81 -277 -1 -346 -42
-36 -114 -35 -158 1 -47 40 -61 76 -62 158 0 74 27 161 58 187 34 28 110 28
163 0z"/>
<path d="M7150 3183 c-14 -9 -37 -27 -52 -41 l-28 -26 0 37 c0 36 -1 37 -40
37 l-40 0 0 -260 0 -260 29 0 c16 0 36 -3 45 -6 14 -5 16 14 16 171 0 163 2
181 21 211 29 48 57 64 107 64 41 0 44 2 38 23 -3 12 -6 32 -6 45 0 18 -5 22
-33 22 -18 0 -44 -7 -57 -17z"/>
<path d="M7425 3181 c-110 -51 -165 -183 -135 -324 17 -82 63 -146 129 -179
183 -93 367 57 348 283 -7 80 -31 133 -86 182 -65 58 -176 75 -256 38z m177
-77 c93 -48 101 -265 13 -343 -68 -60 -172 -35 -213 51 -43 89 -37 197 14 265
40 52 116 63 186 27z"/>
<path d="M9104 3186 c-51 -23 -100 -73 -124 -128 -29 -67 -32 -201 -6 -263 70
-167 306 -199 390 -52 13 23 26 57 30 75 5 32 5 32 -34 32 -37 0 -41 -3 -56
-40 -23 -57 -56 -80 -114 -80 -89 0 -140 73 -140 201 0 126 45 189 135 189 60
0 103 -23 121 -66 11 -25 20 -34 38 -34 14 0 31 -3 40 -6 37 -14 4 97 -41 138
-50 46 -172 63 -239 34z"/>
<path d="M9862 3187 c-18 -5 -48 -27 -67 -49 -31 -34 -35 -44 -35 -94 0 -50 4
-60 33 -88 26 -26 53 -38 137 -61 137 -36 152 -46 148 -93 -2 -29 -10 -40 -37
-56 -70 -41 -180 -14 -211 52 -13 27 -20 32 -52 32 -42 0 -48 -14 -27 -67 42
-112 236 -151 352 -71 34 24 67 87 69 131 3 71 -39 105 -173 143 -122 34 -159
56 -159 95 0 41 40 64 105 63 63 -2 113 -26 121 -59 5 -21 12 -25 43 -25 21 0
40 3 44 6 8 8 -19 73 -41 98 -44 49 -165 71 -250 43z"/>
<path d="M8432 2971 c3 -203 5 -222 24 -247 36 -49 68 -66 136 -71 74 -6 110
7 152 57 l26 32 0 -41 0 -41 40 3 c22 2 42 6 46 10 8 8 6 415 -2 475 -6 41 -7
42 -45 42 l-39 0 0 -157 c0 -181 -9 -224 -55 -270 -29 -29 -40 -33 -84 -33
-55 0 -83 18 -101 66 -6 14 -10 108 -10 210 l0 184 -46 0 -46 0 4 -219z"/>
</g>
</svg>
