<?xml version="1.0" encoding="UTF-8"?>
<svg width="1200pt" height="1200pt" version="1.1" viewBox="0 0 1200 1200" xmlns="http://www.w3.org/2000/svg">
 <path d="m475 1100c-13.289 0.078125-26.062-5.1406-35.5-14.5-9.4648-9.3867-14.789-22.168-14.789-35.5s5.3242-26.113 14.789-35.5l415-414.5-415-414.5c-12.684-12.684-17.637-31.168-12.992-48.492 4.6406-17.328 18.172-30.859 35.5-35.5 17.324-4.6445 35.809 0.30859 48.492 12.992l450 450c9.4648 9.3867 14.789 22.168 14.789 35.5s-5.3242 26.113-14.789 35.5l-450 450c-9.4375 9.3594-22.211 14.578-35.5 14.5z"/>
</svg>
